<?xml version="1.0" encoding="UTF-8"?>
<svg width="77px" height="30px" viewBox="0 0 77 30" version="1.1" xmlns="http://www.w3.org/2000/svg" xmlns:xlink="http://www.w3.org/1999/xlink">
    <!-- Generator: Sketch 52.6 (67491) - http://www.bohemiancoding.com/sketch -->
    <title>asyko</title>
    <desc>Created with Sketch.</desc>
    <g id="HomePage" stroke="none" stroke-width="1" fill="none" fill-rule="evenodd">
        <g id="Desktop-HD-Copy" transform="translate(-140.000000, -47.000000)" fill="#000000">
            <path d="M150.154,68.647 C149.823998,69.1530025 149.285004,69.5544985 148.537,69.8515 C147.788996,70.1485015 146.887005,70.297 145.831,70.297 L145.336,70.297 C143.685992,70.297 142.382505,69.8680043 141.4255,69.01 C140.468495,68.1519957 139.99,66.8870084 139.99,65.215 L139.99,64.852 C139.99,63.0039908 140.517995,61.7280035 141.574,61.024 C142.630005,60.3199965 144.268989,59.968 146.491,59.968 L146.722,59.968 C147.162002,59.968 147.596498,59.9789999 148.0255,60.001 C148.454502,60.0230001 148.789999,60.0559998 149.032,60.1 L149.032,59.407 C149.032,59.0769983 148.999,58.7965012 148.933,58.5655 C148.867,58.3344988 148.713001,58.1310009 148.471,57.955 C148.272999,57.8229993 148.031001,57.7295003 147.745,57.6745 C147.458999,57.6194997 147.041003,57.592 146.491,57.592 C145.918997,57.592 145.297503,57.6414995 144.6265,57.7405 C143.955497,57.8395005 143.301003,57.9769991 142.663,58.153 C142.244998,58.2630006 141.964501,58.2575006 141.8215,58.1365 C141.678499,58.0154994 141.585,57.8120014 141.541,57.526 L141.277,55.777 C141.255,55.6669995 141.2385,55.5460007 141.2275,55.414 C141.2165,55.2819993 141.211,55.1830003 141.211,55.117 C141.211,54.8969989 141.2605,54.7265006 141.3595,54.6055 C141.4585,54.4844994 141.672998,54.3690005 142.003,54.259 C142.707004,54.060999 143.542995,53.8905007 144.511,53.7475 C145.479005,53.6044993 146.523994,53.533 147.646,53.533 C148.966007,53.533 150.065996,53.6649987 150.946,53.929 C151.826004,54.1930013 152.529997,54.5999973 153.058,55.15 C153.894004,56.0080043 154.312,57.3829905 154.312,59.275 L154.312,69.076 C154.312,69.4060017 154.235001,69.6424993 154.081,69.7855 C153.926999,69.9285007 153.630002,70 153.19,70 L151.639,70 C151.264998,70 150.995501,69.9505005 150.8305,69.8515 C150.665499,69.7524995 150.528001,69.5490015 150.418,69.241 L150.22,68.647 L150.154,68.647 Z M149.032,63.499 C148.855999,63.4549998 148.608502,63.4275001 148.2895,63.4165 C147.970498,63.4054999 147.690001,63.4 147.448,63.4 L147.085,63.4 C146.314996,63.4 145.765002,63.4934991 145.435,63.6805 C145.104998,63.8675009 144.94,64.2689969 144.94,64.885 L144.94,65.017 C144.94,65.6330031 145.104998,66.039999 145.435,66.238 C145.765002,66.436001 146.215997,66.535 146.788,66.535 L147.019,66.535 C147.393002,66.535 147.706499,66.4855005 147.9595,66.3865 C148.212501,66.2874995 148.415999,66.1720007 148.57,66.04 C148.746001,65.8639991 148.867,65.6605012 148.933,65.4295 C148.999,65.1984988 149.032,64.8630022 149.032,64.423 L149.032,63.499 Z M156.573769,58.714 C156.573769,57.0859919 157.002765,55.8540042 157.860769,55.018 C158.872774,54.0279951 160.544758,53.533 162.876769,53.533 L163.206769,53.533 C163.580771,53.533 163.987767,53.5494998 164.427769,53.5825 C164.867772,53.6155002 165.307767,53.6594997 165.747769,53.7145 C166.187771,53.7695003 166.605767,53.8299997 167.001769,53.896 C167.397771,53.9620003 167.738768,54.0389996 168.024769,54.127 C168.310771,54.2150004 168.486769,54.3194994 168.552769,54.4405 C168.61877,54.5615006 168.62977,54.7429988 168.585769,54.985 L168.222769,57.691 C168.156769,58.1090021 167.859772,58.2520007 167.331769,58.12 C166.759766,57.9879993 166.176772,57.8780004 165.582769,57.79 C164.988766,57.7019996 164.405772,57.658 163.833769,57.658 L163.800769,57.658 C163.074766,57.658 162.568771,57.7239993 162.282769,57.856 C161.996768,57.9880007 161.853769,58.2189983 161.853769,58.549 L161.853769,58.648 C161.853769,58.9560015 161.985768,59.1814993 162.249769,59.3245 C162.513771,59.4675007 163.008766,59.6159992 163.734769,59.77 L165.285769,60.1 C165.989773,60.2540008 166.589267,60.4464988 167.084269,60.6775 C167.579272,60.9085012 167.986268,61.1999982 168.305269,61.552 C168.624271,61.9040018 168.855269,62.3329975 168.998269,62.839 C169.14127,63.3450025 169.212769,63.9389966 169.212769,64.621 L169.212769,65.116 C169.212769,66.8320086 168.690275,68.1244957 167.645269,68.9935 C166.600264,69.8625043 164.96678,70.297 162.744769,70.297 L162.414769,70.297 C161.952767,70.297 161.474272,70.2750002 160.979269,70.231 C160.484267,70.1869998 159.989272,70.1265004 159.494269,70.0495 C158.999267,69.9724996 158.526272,69.8790006 158.075269,69.769 C157.624267,69.6589994 157.233771,69.5380007 156.903769,69.406 C156.595768,69.2959994 156.40877,69.1640008 156.342769,69.01 C156.276769,68.8559992 156.276769,68.6030018 156.342769,68.251 L156.804769,66.073 C156.91477,65.4349968 157.288766,65.2259989 157.926769,65.446 C158.476772,65.6220009 159.131266,65.7924992 159.890269,65.9575 C160.649273,66.1225008 161.314766,66.205 161.886769,66.205 L161.985769,66.205 C162.733773,66.205 163.245268,66.1280008 163.520269,65.974 C163.795271,65.8199992 163.932769,65.5670018 163.932769,65.215 L163.932769,65.116 C163.932769,64.8299986 163.81727,64.6155007 163.586269,64.4725 C163.355268,64.3294993 162.821773,64.1700009 161.985769,63.994 L160.533769,63.664 C159.125762,63.3559985 158.113772,62.8720033 157.497769,62.212 C156.881766,61.5519967 156.573769,60.5290069 156.573769,59.143 L156.573769,58.714 Z M185.499539,54.82 C185.279538,56.2940074 184.955041,57.8944914 184.526039,59.6215 C184.097036,61.3485086 183.580042,63.1249909 182.975039,64.951 C182.370036,66.7770091 181.671543,68.6249907 180.879539,70.495 C180.087535,72.3650094 179.218543,74.1689913 178.272539,75.907 C178.140538,76.1710013 178.003039,76.3524995 177.860039,76.4515 C177.717038,76.5505005 177.54654,76.6 177.348539,76.6 C177.106537,76.6 176.787541,76.5120009 176.391539,76.336 L174.708539,75.61 C174.136536,75.3459987 173.850539,75.0710014 173.850539,74.785 C173.850539,74.6309992 173.905538,74.4440011 174.015539,74.224 L174.560039,73.135 C174.74704,72.7609981 174.934038,72.3925018 175.121039,72.0295 C175.30804,71.6664982 175.473038,71.3310015 175.616039,71.023 C175.759039,70.7149985 175.863538,70.462001 175.929539,70.264 C175.489536,70.0879991 175.09904,69.8460015 174.758039,69.538 C174.417037,69.2299985 174.09254,68.7240035 173.784539,68.02 C173.476537,67.3159965 173.14104,66.4030056 172.778039,65.281 C172.415037,64.1589944 172.05754,62.9710063 171.705539,61.717 C171.353537,60.4629937 171.03454,59.2200062 170.748539,57.988 C170.462537,56.7559938 170.231539,55.6890045 170.055539,54.787 C169.923538,54.1489968 170.253535,53.83 171.045539,53.83 L174.048539,53.83 C174.42254,53.83 174.692038,53.8794995 174.857039,53.9785 C175.022039,54.0775005 175.137538,54.2919984 175.203539,54.622 C175.357539,55.5240045 175.539038,56.4589952 175.748039,57.427 C175.95704,58.3950048 176.171537,59.3574952 176.391539,60.3145 C176.61154,61.2715048 176.837037,62.2064954 177.068039,63.1195 C177.29904,64.0325046 177.535537,64.884996 177.777539,65.677 L177.942539,65.677 C178.20654,64.9289963 178.470537,64.0710048 178.734539,63.103 C178.99854,62.1349952 179.240538,61.1450051 179.460539,60.133 C179.68054,59.1209949 179.884038,58.1420047 180.071039,57.196 C180.25804,56.2499953 180.406538,55.4250035 180.516539,54.721 C180.560539,54.3689982 180.665038,54.1325006 180.830039,54.0115 C180.995039,53.8904994 181.242537,53.83 181.572539,53.83 L184.608539,53.83 C184.98254,53.83 185.235538,53.9014993 185.367539,54.0445 C185.499539,54.1875007 185.543539,54.4459981 185.499539,54.82 Z M192.249308,69.043 C192.249308,69.3510015 192.172309,69.5874992 192.018308,69.7525 C191.864307,69.9175008 191.56731,70 191.127308,70 L188.091308,70 C187.651306,70 187.354309,69.9175008 187.200308,69.7525 C187.046307,69.5874992 186.969308,69.3510015 186.969308,69.043 L186.969308,48.616 C186.969308,48.3079985 187.046307,48.0715008 187.200308,47.9065 C187.354309,47.7414992 187.651306,47.659 188.091308,47.659 L191.127308,47.659 C191.56731,47.659 191.864307,47.7414992 192.018308,47.9065 C192.172309,48.0715008 192.249308,48.3079985 192.249308,48.616 L192.249308,59.374 L192.480308,59.374 L195.615308,54.589 C195.791309,54.2809985 195.972807,54.0775005 196.159808,53.9785 C196.346809,53.8794995 196.627306,53.83 197.001308,53.83 L200.829308,53.83 C201.20331,53.83 201.390308,53.9619987 201.390308,54.226 C201.390308,54.3580007 201.302309,54.5669986 201.126308,54.853 L197.331308,60.529 C197.045306,60.9690022 196.902308,61.2989989 196.902308,61.519 C196.902308,61.6730008 196.935308,61.8159993 197.001308,61.948 C197.067308,62.0800007 197.177307,62.2669988 197.331308,62.509 L201.390308,68.911 C201.456308,69.0210005 201.505808,69.1144996 201.538808,69.1915 C201.571808,69.2685004 201.588308,69.3619994 201.588308,69.472 C201.588308,69.8240018 201.35731,70 200.895308,70 L197.232308,70 C196.770306,70 196.434809,69.9450006 196.225808,69.835 C196.016807,69.7249994 195.813309,69.4940018 195.615308,69.142 L192.480308,63.598 L192.249308,63.598 L192.249308,69.043 Z M207.348077,63.202 C207.348077,63.9280036 207.386577,64.4669982 207.463577,64.819 C207.540578,65.1710018 207.700076,65.4679988 207.942077,65.71 C208.250079,66.0180015 208.712074,66.172 209.328077,66.172 L209.460077,66.172 C210.07608,66.172 210.538076,66.0180015 210.846077,65.71 C211.088078,65.4679988 211.247577,65.1710018 211.324577,64.819 C211.401578,64.4669982 211.440077,63.9280036 211.440077,63.202 L211.440077,60.628 C211.440077,59.9019964 211.401578,59.3630018 211.324577,59.011 C211.247577,58.6589982 211.088078,58.3620012 210.846077,58.12 C210.538076,57.8119985 210.07608,57.658 209.460077,57.658 L209.328077,57.658 C208.712074,57.658 208.250079,57.8119985 207.942077,58.12 C207.700076,58.3620012 207.540578,58.6589982 207.463577,59.011 C207.386577,59.3630018 207.348077,59.9019964 207.348077,60.628 L207.348077,63.202 Z M216.753077,62.971 C216.753077,63.8070042 216.709078,64.5439968 216.621077,65.182 C216.533077,65.8200032 216.401078,66.3754976 216.225077,66.8485 C216.049076,67.3215024 215.834578,67.7339982 215.581577,68.086 C215.328576,68.4380018 215.026079,68.7459987 214.674077,69.01 C214.190075,69.3840019 213.519081,69.6919988 212.661077,69.934 C211.803073,70.1760012 210.780083,70.297 209.592077,70.297 L209.196077,70.297 C208.008071,70.297 206.985081,70.1760012 206.127077,69.934 C205.269073,69.6919988 204.59808,69.3840019 204.114077,69.01 C203.762075,68.7459987 203.459578,68.4380018 203.206577,68.086 C202.953576,67.7339982 202.739078,67.3215024 202.563077,66.8485 C202.387076,66.3754976 202.255078,65.8200032 202.167077,65.182 C202.079077,64.5439968 202.035077,63.8070042 202.035077,62.971 L202.035077,60.859 C202.035077,60.0229958 202.079077,59.2860032 202.167077,58.648 C202.255078,58.0099968 202.387076,57.4545024 202.563077,56.9815 C202.739078,56.5084976 202.953576,56.0960018 203.206577,55.744 C203.459578,55.3919982 203.762075,55.0840013 204.114077,54.82 C204.59808,54.4459981 205.269073,54.1380012 206.127077,53.896 C206.985081,53.6539988 208.008071,53.533 209.196077,53.533 L209.592077,53.533 C210.780083,53.533 211.803073,53.6539988 212.661077,53.896 C213.519081,54.1380012 214.190075,54.4459981 214.674077,54.82 C215.026079,55.0840013 215.328576,55.3919982 215.581577,55.744 C215.834578,56.0960018 216.049076,56.5084976 216.225077,56.9815 C216.401078,57.4545024 216.533077,58.0044969 216.621077,58.6315 C216.709078,59.2585031 216.753077,59.9899958 216.753077,60.826 L216.753077,62.971 Z" id="asyko"></path>
        </g>
    </g>
</svg>