<?xml version="1.0" encoding="UTF-8"?>
<svg width="800px" height="600px" viewBox="0 0 800 600" version="1.1" xmlns="http://www.w3.org/2000/svg" xmlns:xlink="http://www.w3.org/1999/xlink">
    <!-- Generator: Sketch 52.6 (67491) - http://www.bohemiancoding.com/sketch -->
    <title>fogg-bad-gateway</title>
    <desc>Created with Sketch.</desc>
    <defs>
        <linearGradient x1="49.9999191%" y1="99.9999651%" x2="49.9999191%" y2="-0.000623823042%" id="linearGradient-1">
            <stop stop-color="#FFFFFF" offset="0%"></stop>
            <stop stop-color="#F9F9F9" offset="53%"></stop>
            <stop stop-color="#EEEEEE" offset="100%"></stop>
        </linearGradient>
        <linearGradient x1="49.999998%" y1="100.000169%" x2="49.999998%" y2="0%" id="linearGradient-2">
            <stop stop-color="#FFFFFF" offset="0%"></stop>
            <stop stop-color="#F9F9F9" offset="53%"></stop>
            <stop stop-color="#EEEEEE" offset="100%"></stop>
        </linearGradient>
        <linearGradient x1="50%" y1="100%" x2="50%" y2="0%" id="linearGradient-3">
            <stop stop-color="#FFFFFF" offset="0%"></stop>
            <stop stop-color="#F9F9F9" offset="53%"></stop>
            <stop stop-color="#EEEEEE" offset="100%"></stop>
        </linearGradient>
        <linearGradient x1="50.0000039%" y1="100%" x2="50.0000039%" y2="0.000577269618%" id="linearGradient-4">
            <stop stop-color="#FFFFFF" offset="0%"></stop>
            <stop stop-color="#F9F9F9" offset="53%"></stop>
            <stop stop-color="#EEEEEE" offset="100%"></stop>
        </linearGradient>
        <linearGradient x1="49.9999855%" y1="100%" x2="49.9999855%" y2="0.000398705163%" id="linearGradient-5">
            <stop stop-color="#FFFFFF" offset="0%"></stop>
            <stop stop-color="#F9F9F9" offset="53%"></stop>
            <stop stop-color="#EEEEEE" offset="100%"></stop>
        </linearGradient>
        <linearGradient x1="50.0003036%" y1="100.000161%" x2="50.0003036%" y2="0.138125673%" id="linearGradient-6">
            <stop stop-color="#FFFFFF" offset="0%"></stop>
            <stop stop-color="#F9F9F9" offset="53%"></stop>
            <stop stop-color="#EEEEEE" offset="100%"></stop>
        </linearGradient>
    </defs>
    <g id="HomePage" stroke="none" stroke-width="1" fill="none" fill-rule="evenodd">
        <g id="Desktop-HD-Copy" transform="translate(-320.000000, -260.000000)">
            <g id="fogg-bad-gateway" transform="translate(320.000000, 260.000000)">
                <rect id="Rectangle" fill="#FFFFFF" x="0" y="0" width="800" height="600"></rect>
                <path d="M231.5,312 L560.5,312 C564.642,312.01 568.008,308.661 568.019,304.519 C568.03,300.377 564.68,297.011 560.538,297 C558.943,296.996 557.389,297.5 556.1,298.44 C551.925,290.652 542.227,287.723 534.439,291.897 C533.056,292.638 531.789,293.579 530.68,294.69 C528.841,284.929 519.443,278.503 509.68,280.33 C507.937,280.65 506.251,281.23 504.68,282.05 C500.014,267.597 484.515,259.662 470.062,264.328 C462.143,266.884 455.808,272.889 452.83,280.66 C448.502,266.679 433.66,258.853 419.679,263.181 C414.757,264.705 410.385,267.63 407.1,271.6 C400.802,253.325 380.882,243.615 362.607,249.913 C350.765,253.994 342.007,264.091 339.64,276.39 C331.538,268.882 318.884,269.363 311.376,277.465 C310.888,277.992 310.429,278.544 310,279.12 C302.322,271.967 290.3,272.392 283.147,280.069 C281.221,282.136 279.781,284.606 278.93,287.3 C272.238,284.203 264.292,286.827 260.76,293.3 C256.547,286.816 247.876,284.976 241.393,289.188 C238.286,291.207 236.105,294.376 235.33,298 C231.74,295.934 227.155,297.17 225.089,300.76 C223.023,304.35 224.259,308.935 227.849,311.001 C228.96,311.641 230.217,311.985 231.5,312 Z" id="Path" fill="url(#linearGradient-1)"></path>
                <path d="M735.5,415 C733.48,414.981 731.506,415.6 729.86,416.77 C727.433,411.318 721.966,407.859 716,408 C711.755,407.901 707.667,409.605 704.75,412.69 C703.5,405.92 697.38,401 690,401 C686.571,400.91 683.214,401.989 680.48,404.06 C676.93,397.93 670,394 662,394 C656.144,393.878 650.495,396.162 646.37,400.32 C642.45,390.23 631.9,383 619.5,383 C616.692,383 613.896,383.38 611.19,384.13 C605.46,375.74 593.88,370 580.5,370 C564.5,370 550.99,378.24 547.12,389.41 C542.12,384.29 534.28,381 525.5,381 C513.41,381 503.14,387.25 499.5,395.93 C495.983,393.98 492.022,392.971 488,393 C478.34,393 470.23,398.59 467.78,406.2 C464.37,402.46 458.57,400 452,400 C444.05,400 437.25,403.6 434.42,408.7 C431.56,405.27 426.63,403 421,403 C412.74,403 405.94,407.89 405.09,414.17 C401.042,413.292 397.048,415.862 396.17,419.91 C395.292,423.958 397.862,427.952 401.91,428.83 C402.433,428.941 402.966,428.998 403.5,429 L735.5,429 C740.19,429 744,425.87 744,422 C744,418.13 740.19,415 735.5,415 Z M435.34,421 L435.44,420.85 L435.56,421 L435.34,421 Z" id="Shape" fill="url(#linearGradient-2)" fill-rule="nonzero"></path>
                <g id="Group" transform="translate(224.000000, 84.000000)">
                    <g transform="translate(10.000000, 229.000000)" stroke="#FFCA28">
                        <circle id="Oval" cx="157.5" cy="30.5" r="2"></circle>
                        <ellipse id="Oval" cx="161.47" cy="4.5" rx="2.03" ry="2"></ellipse>
                        <path d="M155.5,30.5 C155.421,32.629 157.082,34.419 159.21,34.5 L159.5,34.5 C162.28,34.5 164.5,32.16 164.5,28.64 C164.5,17.5 154.5,17.5 154.5,6.36 C154.5,2.84 156.72,0.5 159.5,0.5 C161.629,0.421 163.419,2.082 163.5,4.21 L163.5,4.5" id="Path"></path>
                        <circle id="Oval" cx="150.5" cy="30.5" r="2"></circle>
                        <ellipse id="Oval" cx="146.53" cy="4.5" rx="2.03" ry="2"></ellipse>
                        <path d="M152.5,30.5 C152.579,32.629 150.918,34.419 148.79,34.5 L148.5,34.5 C145.72,34.5 143.5,32.16 143.5,28.64 C143.5,17.5 153.5,17.5 153.5,6.36 C153.5,2.84 151.28,0.5 148.5,0.5 C146.371,0.421 144.581,2.082 144.5,4.21 L144.5,4.5" id="Path"></path>
                        <circle id="Oval" cx="128.5" cy="30.5" r="2"></circle>
                        <ellipse id="Oval" cx="124.53" cy="4.5" rx="2.03" ry="2"></ellipse>
                        <path d="M130.5,30.5 C130.579,32.629 128.918,34.419 126.79,34.5 L126.5,34.5 C123.72,34.5 121.5,32.16 121.5,28.64 C121.5,17.5 131.5,17.5 131.5,6.36 C131.5,2.84 129.28,0.5 126.5,0.5 C124.371,0.421 122.581,2.082 122.5,4.21 L122.5,4.5" id="Path"></path>
                        <circle id="Oval" cx="106.5" cy="30.5" r="2"></circle>
                        <ellipse id="Oval" cx="102.53" cy="4.5" rx="2.03" ry="2"></ellipse>
                        <path d="M108.5,30.5 C108.579,32.629 106.918,34.419 104.79,34.5 L104.5,34.5 C101.72,34.5 99.5,32.16 99.5,28.64 C99.5,17.5 109.5,17.5 109.5,6.36 C109.5,2.84 107.28,0.5 104.5,0.5 C102.371,0.421 100.581,2.082 100.5,4.21 L100.5,4.5" id="Path"></path>
                        <circle id="Oval" cx="84.5" cy="30.5" r="2"></circle>
                        <ellipse id="Oval" cx="80.53" cy="4.5" rx="2.03" ry="2"></ellipse>
                        <path d="M86.5,30.5 C86.579,32.629 84.918,34.419 82.79,34.5 L82.5,34.5 C79.72,34.5 77.5,32.16 77.5,28.64 C77.5,17.5 87.5,17.5 87.5,6.36 C87.5,2.84 85.28,0.5 82.5,0.5 C80.371,0.421 78.581,2.082 78.5,4.21 L78.5,4.5" id="Path"></path>
                        <circle id="Oval" cx="62.5" cy="30.5" r="2"></circle>
                        <ellipse id="Oval" cx="58.53" cy="4.5" rx="2.03" ry="2"></ellipse>
                        <path d="M64.5,30.5 C64.579,32.629 62.918,34.419 60.79,34.5 L60.5,34.5 C57.72,34.5 55.5,32.16 55.5,28.64 C55.5,17.5 65.5,17.5 65.5,6.36 C65.5,2.84 63.28,0.5 60.5,0.5 C58.371,0.421 56.581,2.082 56.5,4.21 L56.5,4.5" id="Path"></path>
                        <circle id="Oval" cx="40.5" cy="30.5" r="2"></circle>
                        <ellipse id="Oval" cx="36.53" cy="4.5" rx="2.03" ry="2"></ellipse>
                        <path d="M42.5,30.5 C42.579,32.629 40.918,34.419 38.79,34.5 L38.5,34.5 C35.72,34.5 33.5,32.16 33.5,28.64 C33.5,17.5 43.5,17.5 43.5,6.36 C43.5,2.84 41.28,0.5 38.5,0.5 C36.371,0.421 34.581,2.082 34.5,4.21 L34.5,4.5" id="Path"></path>
                        <circle id="Oval" cx="18.5" cy="30.5" r="2"></circle>
                        <ellipse id="Oval" cx="14.53" cy="4.5" rx="2.03" ry="2"></ellipse>
                        <path d="M20.5,30.5 C20.579,32.629 18.918,34.419 16.79,34.5 L16.5,34.5 C13.72,34.5 11.5,32.16 11.5,28.64 C11.5,17.5 21.5,17.5 21.5,6.36 C21.5,2.84 19.28,0.5 16.5,0.5 C14.371,0.421 12.581,2.082 12.5,4.21 L12.5,4.5" id="Path"></path>
                        <circle id="Oval" cx="135.5" cy="30.5" r="2"></circle>
                        <ellipse id="Oval" cx="139.47" cy="4.5" rx="2.03" ry="2"></ellipse>
                        <path d="M133.5,30.5 C133.421,32.629 135.082,34.419 137.21,34.5 L137.5,34.5 C140.28,34.5 142.5,32.16 142.5,28.64 C142.5,17.5 132.5,17.5 132.5,6.36 C132.5,2.84 134.72,0.5 137.5,0.5 C139.629,0.421 141.419,2.082 141.5,4.21 L141.5,4.5" id="Path"></path>
                        <circle id="Oval" cx="113.5" cy="30.5" r="2"></circle>
                        <ellipse id="Oval" cx="117.47" cy="4.5" rx="2.03" ry="2"></ellipse>
                        <path d="M111.5,30.5 C111.421,32.629 113.082,34.419 115.21,34.5 L115.5,34.5 C118.28,34.5 120.5,32.16 120.5,28.64 C120.5,17.5 110.5,17.5 110.5,6.36 C110.5,2.84 112.72,0.5 115.5,0.5 C117.629,0.421 119.419,2.082 119.5,4.21 L119.5,4.5" id="Path"></path>
                        <circle id="Oval" cx="91.5" cy="30.5" r="2"></circle>
                        <ellipse id="Oval" cx="95.47" cy="4.5" rx="2.03" ry="2"></ellipse>
                        <path d="M89.5,30.5 C89.421,32.629 91.082,34.419 93.21,34.5 L93.5,34.5 C96.28,34.5 98.5,32.16 98.5,28.64 C98.5,17.5 88.5,17.5 88.5,6.36 C88.5,2.84 90.72,0.5 93.5,0.5 C95.629,0.421 97.419,2.082 97.5,4.21 L97.5,4.5" id="Path"></path>
                        <circle id="Oval" cx="69.5" cy="30.5" r="2"></circle>
                        <ellipse id="Oval" cx="73.47" cy="4.5" rx="2.03" ry="2"></ellipse>
                        <path d="M67.5,30.5 C67.421,32.629 69.082,34.419 71.21,34.5 L71.5,34.5 C74.28,34.5 76.5,32.16 76.5,28.64 C76.5,17.5 66.5,17.5 66.5,6.36 C66.5,2.84 68.72,0.5 71.5,0.5 C73.629,0.421 75.419,2.082 75.5,4.21 L75.5,4.5" id="Path"></path>
                        <circle id="Oval" cx="47.5" cy="30.5" r="2"></circle>
                        <ellipse id="Oval" cx="51.47" cy="4.5" rx="2.03" ry="2"></ellipse>
                        <path d="M45.5,30.5 C45.421,32.629 47.082,34.419 49.21,34.5 L49.5,34.5 C52.28,34.5 54.5,32.16 54.5,28.64 C54.5,17.5 44.5,17.5 44.5,6.36 C44.5,2.84 46.72,0.5 49.5,0.5 C51.629,0.421 53.419,2.082 53.5,4.21 L53.5,4.5" id="Path"></path>
                        <circle id="Oval" cx="25.5" cy="30.5" r="2"></circle>
                        <ellipse id="Oval" cx="29.47" cy="4.5" rx="2.03" ry="2"></ellipse>
                        <path d="M23.5,30.5 C23.421,32.629 25.082,34.419 27.21,34.5 L27.5,34.5 C30.28,34.5 32.5,32.16 32.5,28.64 C32.5,17.5 22.5,17.5 22.5,6.36 C22.5,2.84 24.72,0.5 27.5,0.5 C29.629,0.421 31.419,2.082 31.5,4.21 L31.5,4.5" id="Path"></path>
                        <circle id="Oval" cx="3.5" cy="30.5" r="2"></circle>
                        <ellipse id="Oval" cx="7.47" cy="4.5" rx="2.03" ry="2"></ellipse>
                        <path d="M1.5,30.5 C1.421,32.629 3.082,34.419 5.21,34.5 L5.5,34.5 C8.28,34.5 10.5,32.16 10.5,28.64 C10.5,17.5 0.5,17.5 0.5,6.36 C0.5,2.84 2.72,0.5 5.5,0.5 C7.629,0.421 9.419,2.082 9.5,4.21 L9.5,4.5" id="Path"></path>
                    </g>
                    <g>
                        <path d="M21,93 L21,146" id="Path" stroke="#FFCA28" stroke-width="2"></path>
                        <path d="M32,92 L32,146" id="Path" stroke="#FFCA28" stroke-width="2"></path>
                        <path d="M43,91 L43,146" id="Path" stroke="#FFCA28" stroke-width="2"></path>
                        <path d="M54,89 L54,146" id="Path" stroke="#FFCA28" stroke-width="2"></path>
                        <path d="M65,84.88 L65,146" id="Path" stroke="#FFCA28" stroke-width="2"></path>
                        <path d="M76,80.25 L76,146" id="Path" stroke="#FFCA28" stroke-width="2"></path>
                        <path d="M87,75.12 L87,146" id="Path" stroke="#FFCA28" stroke-width="2"></path>
                        <path d="M98,70.38 L98,146" id="Path" stroke="#FFCA28" stroke-width="2"></path>
                        <path d="M109,66 L109,146" id="Path" stroke="#FFCA28" stroke-width="2"></path>
                        <path d="M120,62 L120,146" id="Path" stroke="#FFCA28" stroke-width="2"></path>
                        <path d="M131,58 L131,146" id="Path" stroke="#FFCA28" stroke-width="2"></path>
                        <path d="M142,55 L142,146" id="Path" stroke="#FFCA28" stroke-width="2"></path>
                        <path d="M153,53 L153,146" id="Path" stroke="#FFCA28" stroke-width="2"></path>
                        <path d="M164,52 L164,146" id="Path" stroke="#FFCA28" stroke-width="2"></path>
                        <path d="M21,172 L21,265" id="Path" stroke="#FFCA28" stroke-width="2"></path>
                        <path d="M32,172 L32,265" id="Path" stroke="#FFCA28" stroke-width="2"></path>
                        <path d="M43,172 L43,265" id="Path" stroke="#FFCA28" stroke-width="2"></path>
                        <path d="M54,172 L54,265" id="Path" stroke="#FFCA28" stroke-width="2"></path>
                        <path d="M65,172 L65,265" id="Path" stroke="#FFCA28" stroke-width="2"></path>
                        <path d="M76,172 L76,265" id="Path" stroke="#FFCA28" stroke-width="2"></path>
                        <path d="M87,173 L87,265" id="Path" stroke="#FFCA28" stroke-width="2"></path>
                        <path d="M98,172 L98,265" id="Path" stroke="#FFCA28" stroke-width="2"></path>
                        <path d="M109,172 L109,265" id="Path" stroke="#FFCA28" stroke-width="2"></path>
                        <path d="M120,172 L120,265" id="Path" stroke="#FFCA28" stroke-width="2"></path>
                        <path d="M131,172 L131,265" id="Path" stroke="#FFCA28" stroke-width="2"></path>
                        <path d="M142,173 L142,265" id="Path" stroke="#FFCA28" stroke-width="2"></path>
                        <path d="M153,172 L153,265" id="Path" stroke="#FFCA28" stroke-width="2"></path>
                        <path d="M164,172 L164,265" id="Path" stroke="#FFCA28" stroke-width="2"></path>
                        <path d="M175,172 L4,172" id="Path" stroke="#FFCA28" stroke-width="2"></path>
                        <path d="M176,146 L3,146" id="Path" stroke="#FFCA28" stroke-width="2"></path>
                        <g transform="translate(6.000000, 64.000000)" id="Path" stroke="#FFCA28">
                            <polyline stroke-width="10" stroke-linecap="round" points="0 0 0 205 169 205"></polyline>
                            <path d="M2,162.5 L170,162.5" stroke-width="5"></path>
                        </g>
                        <path d="M6,93 L10.1,93 C28.04,93 48.39,93 77.6,79.59 L81.76,77.68 C113,63.33 137.59,52 176,52" id="Path" stroke="#FFCA28" stroke-width="2"></path>
                        <path d="M6.54,113 L10.1,113 C29.1,113 52.76,113 85.94,97.77 C119.12,82.54 140.45,72 176,72" id="Path" stroke="#FFCA28" stroke-width="2"></path>
                        <path d="M6,105 L10.1,105 C28.32,105 51.01,105 82.6,90.5 L86.78,88.58 C117.8,74.31 140.22,64 176,64" id="Path" stroke="#FFCA28" stroke-width="2"></path>
                        <path d="M175.5,271 L175.5,24" id="Path" stroke="#FFCA28" stroke-width="3"></path>
                        <g transform="translate(172.000000, 0.000000)" fill="#FFCA28">
                            <circle id="Oval" cx="4" cy="21" r="4"></circle>
                            <polygon id="Path" points="8 15 5.33 20.14 2.67 20.14 0 15"></polygon>
                            <path d="M2,13.71 C2,14.815 2.895,15.71 4,15.71 C5.105,15.71 6,14.815 6,13.71 C6,12.45 4,0 4,0 C4,0 2,12.45 2,13.71 Z" id="Path"></path>
                        </g>
                        <polygon id="Path" fill="#FFCA28" points="0 54 3.67 62 8.33 62 12 54"></polygon>
                    </g>
                    <g transform="translate(3.000000, 37.000000)" id="Path">
                        <path d="M108.65,110.18 C115.71,113.73 115.16,123 124,123 C128.28,123 132,120.42 132,116.13 C132,110.81 128.83,109.01 125.41,109.01 C121.99,109.01 119.96,111.24 119.96,114.01 C120.003,116.201 121.769,117.967 123.96,118.01 C125.641,118.032 127.023,116.691 127.05,115.01 L127.05,114.92 C127.067,113.496 125.943,112.319 124.52,112.27" stroke="#FFCA28" stroke-width="2"></path>
                        <path d="M148.63,128.88 C147.15,125.1 146.52,119 139.38,119 C133.93,119 130.55,121.88 130,126.85 C129.57,130.85 132.25,135 136.5,135 C140.13,135 143,132.83 143,129.63 C143.19,127.269 141.431,125.201 139.07,125.01 L138.5,125.01 C136.5,125.01 135,126.14 135,128.14 C135.099,129.732 136.405,130.982 138,131.01" stroke="#FFCA28" stroke-width="2"></path>
                        <path d="M110.14,112 C107.988,109.908 105.055,108.819 102.06,109 C96.76,109 90,112.55 90,122 C90,128.85 97.33,135 104,135 C128.74,135 131,109 157,109 C163.67,109 171,115.15 171,122 C171,128.85 166.47,135 158.24,135 C155.386,135.058 152.627,133.979 150.57,132 C147.44,128.547 147.44,123.283 150.57,119.83 C153.072,117.325 157.13,117.323 159.635,119.825 C159.637,119.827 159.638,119.828 159.64,119.83 C161.64,121.83 161.36,124.73 159.36,126.75 C158.561,127.537 157.481,127.972 156.36,127.96 C154.569,128.022 153.061,126.631 152.98,124.84 C152.94,124.05 153.221,123.278 153.76,122.7 C154.787,121.673 156.452,121.672 157.479,122.699 C157.479,122.699 157.479,122.699 157.48,122.7" stroke="#FFCA28" stroke-width="2"></path>
                        <path d="M107,120.94 C108.311,119.683 108.356,117.602 107.1,116.29 L107,116.19 C105.175,114.548 102.405,114.548 100.58,116.19 C98.491,118.405 98.491,121.865 100.58,124.08 C101.84,125.328 103.547,126.02 105.32,126 C107.159,125.977 108.923,125.263 110.26,124 C113.497,120.637 113.448,115.303 110.15,112" stroke="#FFCA28" stroke-width="2"></path>
                        <path d="M70.35,110.18 C63.29,113.73 63.84,123 55,123 C50.72,123 47,120.42 47,116.12 C47,110.81 50.17,109.01 53.59,109.01 C57.01,109.01 59.04,111.24 59.04,114.01 C58.997,116.201 57.231,117.967 55.04,118.01 C53.359,118.032 51.977,116.691 51.95,115.01 L51.95,114.92 C51.933,113.496 53.057,112.319 54.48,112.27" stroke="#FFCA28" stroke-width="2"></path>
                        <path d="M30.37,128.87 C31.85,125.1 32.48,119 39.63,119 C45.07,119 48.45,121.88 49,126.85 C49.43,130.85 46.75,135 42.5,135 C38.87,135 36,132.83 36,129.62 C35.805,127.27 37.552,125.207 39.902,125.011 C39.908,125.01 39.914,125.01 39.92,125.01 C40.106,124.99 40.294,124.99 40.48,125.01 C42.48,125.01 43.98,126.13 43.98,128.13 C43.916,129.74 42.591,131.011 40.98,131.01" stroke="#FFCA28" stroke-width="2"></path>
                        <path d="M68.86,112 C71.012,109.908 73.945,108.819 76.94,109 C82.24,109 89,112.55 89,122 C89,128.85 81.67,135 75,135 C50.26,135 48,109 22,109 C15.33,109 8,115.15 8,122 C8,128.85 12.53,135 20.76,135 C23.614,135.058 26.373,133.979 28.43,132 C31.56,128.547 31.56,123.283 28.43,119.83 C25.928,117.325 21.869,117.323 19.365,119.825 C19.363,119.827 19.362,119.828 19.36,119.83 C17.36,121.83 17.64,124.73 19.64,126.75 C20.439,127.537 21.519,127.972 22.64,127.96 C24.433,128.017 25.939,126.622 26.02,124.83 C26.062,124.043 25.78,123.273 25.24,122.7 C24.213,121.673 22.548,121.672 21.521,122.699 C21.521,122.699 21.521,122.699 21.52,122.7" stroke="#FFCA28" stroke-width="2"></path>
                        <path d="M72,120.94 C70.689,119.683 70.644,117.602 71.9,116.29 L72,116.19 C73.825,114.548 76.595,114.548 78.42,116.19 C80.509,118.405 80.509,121.865 78.42,124.08 C77.16,125.328 75.453,126.02 73.68,126 C71.841,125.977 70.077,125.263 68.74,124 C65.503,120.637 65.552,115.303 68.85,112" stroke="#FFCA28" stroke-width="2"></path>
                        <path d="M6,14.57 C5.64,16.227 4.005,17.278 2.348,16.918 C1.173,16.663 0.255,15.745 0,14.57 C0,13.23 3,0 3,0 C3,0 6,13.23 6,14.57 Z" fill="#FFCA28"></path>
                    </g>
                    <g transform="translate(10.000000, 10.000000)" id="Path" stroke="#FFCA28" stroke-width="2">
                        <path d="M151.64,6.61 C151.856,8.071 153.167,9.116 154.64,9 C156.566,8.93 158.071,7.311 158,5.385 C158,5.383 158,5.382 158,5.38 C158.108,3.087 156.351,1.134 154.06,1 C153.873,0.99 153.687,0.99 153.5,1 C149.63,1 147.38,4.5 148.14,8.23 C148.7,10.98 150.58,12.75 153.38,13.75"></path>
                        <path d="M109.63,39.75 C109.249,38.64 108.171,37.923 107,38 C105.25,38 104,39.52 104,41.5 C104.044,43.482 105.686,45.054 107.668,45.01 C107.669,45.01 107.669,45.01 107.67,45.01 L107.88,45.01 C111.25,45.01 112.93,41.73 112.97,39.76 C113.002,38.718 112.768,37.686 112.29,36.76 C110.514,33.34 106.308,32 102.88,33.76 C98.59,35.98 97.17,41.53 99.39,45.82 C102.16,51.17 108.15,52.01 113.88,50.13 C122.42,47.31 124.7,39.83 127.67,30.59 C131.45,18.85 140.04,11.59 151.25,13.28 C159.022,14.248 164.89,20.799 165,28.63 C165.01,29.53 164.95,30.429 164.82,31.32 C163.74,38.5 156.49,42.89 149.31,41.81 C143.57,40.95 139.17,36.15 140.03,30.41 C140.638,26.033 144.464,22.829 148.88,23 C152.745,22.933 155.933,26.013 156,29.878 C156,29.879 156,29.879 156,29.88 L156,30 C156,33.75 153.63,36 150.63,36 C148.186,36.113 146.113,34.224 146,31.78 L146,31.5 C145.978,29.578 147.518,28.002 149.44,27.98 C149.44,27.98 149.44,27.98 149.44,27.98 C149.586,27.97 149.734,27.97 149.88,27.98"></path>
                        <path d="M90.5,49.38 C90.158,49.85 89.983,50.42 90,51 C90,52.105 90.895,53 92,53 L92.13,53 C94,53 95,51.38 95,49.63 C95.002,48.998 94.836,48.377 94.52,47.83 C93.828,46.627 92.516,45.918 91.13,46 C90.29,46.024 89.47,46.266 88.75,46.7 C86.121,48.34 85.241,51.754 86.75,54.46 C88.355,57.527 92.142,58.714 95.21,57.11 C95.35,57.04 95.48,56.96 95.61,56.88 C99.697,54.6 101.169,49.443 98.9,45.35 C97.138,42.071 93.723,40.018 90,40 C88.105,39.998 86.245,40.502 84.61,41.46 C82.86,42.537 81.355,43.968 80.19,45.66 C73.69,54.66 69.49,68.37 52.88,75.66 C50.15,76.85 44.56,77.53 41.62,76.25 C37.697,74.774 35.713,70.397 37.189,66.474 C37.189,66.473 37.19,66.472 37.19,66.47 C37.25,66.32 37.31,66.17 37.38,66.02 C38.728,62.729 42.486,61.149 45.78,62.49 L45.85,62.49 C48.487,63.642 49.697,66.707 48.56,69.35 C47.622,71.482 45.157,72.48 43,71.6 C41.471,71.091 40.643,69.44 41.15,67.91 C41.18,67.803 41.22,67.699 41.27,67.6 C41.848,66.25 43.41,65.623 44.76,66.2"></path>
                        <path d="M128.25,20.32 C127.255,19.699 125.946,19.998 125.32,20.99 C124.581,22.128 124.904,23.649 126.04,24.39 L126.17,24.47 C127.71,25.443 129.747,24.997 130.74,23.47 C131.95,21.622 131.432,19.142 129.584,17.933 C129.583,17.932 129.581,17.931 129.58,17.93 L129.49,17.88 L129.41,17.88 C126.856,16.38 123.579,17.094 121.88,19.52 C120.46,21.77 120.88,24.1 122.48,26.59 C123.65,28.42 126,30.23 126,33.85 C125.978,36.234 124.819,38.463 122.88,39.85 C121.736,40.625 120.381,41.026 119,41 C116.867,41.008 114.86,39.988 113.61,38.26 C111.906,35.846 112.463,32.509 114.86,30.78 C115.524,30.306 116.314,30.041 117.13,30.02 C119.134,29.912 120.847,31.446 120.96,33.45 L120.96,33.62 C120.991,34.756 120.46,35.833 119.54,36.5 C118.313,37.36 116.624,37.08 115.74,35.87"></path>
                        <path d="M4.09,78.69 C3.759,77.017 4.847,75.392 6.52,75.06 C6.76,75.01 7.005,74.99 7.25,75 C9.183,74.857 10.866,76.307 11.01,78.24 C11.03,78.453 11.03,78.667 11.01,78.88 C10.995,80.738 9.703,82.341 7.89,82.75 C4.72,83.51 1.51,82 0.73,78.92 C-0.212,75.074 2.143,71.192 5.989,70.25 C5.989,70.25 5.99,70.25 5.99,70.25 L6.13,70.25 C9.83,69.36 12.38,70.94 14.72,73.59 C16.72,75.9 17.95,78.59 22.14,80.38 C26.33,82.17 29.74,81.82 32.75,79.66 C36.759,76.933 37.799,71.472 35.071,67.462 C35.071,67.461 35.07,67.461 35.07,67.46 C34.97,67.31 34.86,67.16 34.75,67.02 C32.314,63.747 27.689,63.062 24.41,65.49 C22.869,66.65 21.979,68.481 22.02,70.41 C22.009,71.716 22.4,72.994 23.14,74.07 C24.059,75.296 25.489,76.033 27.02,76.07 C29.053,76.237 30.84,74.732 31.02,72.7 L31.02,72.45 C31.02,71.65 30.65,69.07 28.02,69.07 C26.888,68.996 25.834,69.652 25.4,70.7"></path>
                        <path d="M73.75,56 C74.67,54.42 76.27,52.22 78.1,51.5 C81.524,50.019 85.502,51.583 87,55 C88.078,57.775 86.717,60.9 83.95,62 C81.697,62.879 79.154,61.807 78.21,59.58 C77.529,57.801 78.419,55.806 80.198,55.124 C80.202,55.123 80.206,55.121 80.21,55.12 C81.618,54.557 83.217,55.236 83.79,56.64"></path>
                        <path d="M64.38,68.12 C67.76,64.3 68.1,58.03 64.14,54.75 C60.903,52.163 56.209,52.558 53.45,55.65 C51.352,58.003 51.558,61.611 53.91,63.71 L54.11,63.88 C56.236,65.528 59.267,65.29 61.11,63.33 C61.681,62.592 61.988,61.683 61.98,60.75 C62.112,58.817 60.653,57.143 58.72,57.01 L58.48,57.01 C57.58,57.009 56.722,57.391 56.12,58.06 C55.721,58.507 55.51,59.091 55.53,59.69"></path>
                    </g>
                    <g transform="translate(11.000000, 53.000000)" id="Oval" stroke="#FFCA28">
                        <circle cx="4.5" cy="46" r="4.5"></circle>
                        <circle cx="15.38" cy="45.68" r="4.5"></circle>
                        <circle cx="26.5" cy="44.67" r="4.5"></circle>
                        <circle cx="37.5" cy="42.78" r="4.5"></circle>
                        <circle cx="48.5" cy="40" r="4.5"></circle>
                        <circle cx="59.63" cy="36.07" r="4.5"></circle>
                        <circle cx="70.5" cy="31.41" r="4.5"></circle>
                        <circle cx="81.5" cy="26.34" r="4.5"></circle>
                        <circle cx="92.5" cy="21.46" r="4.5"></circle>
                        <circle cx="103.5" cy="16.92" r="4.5"></circle>
                        <circle cx="114.5" cy="12.97" r="4.5"></circle>
                        <circle cx="125.5" cy="9.76" r="4.5"></circle>
                        <circle cx="136.5" cy="7.39" r="4.5"></circle>
                        <circle cx="148" cy="5.81" r="4.5"></circle>
                        <circle cx="158.5" cy="5.13" r="4.5"></circle>
                    </g>
                </g>
                <g id="Group" transform="translate(396.000000, 84.000000)">
                    <g transform="translate(5.000000, 229.000000)" stroke="#FFCA28">
                        <circle id="Oval" cx="7.5" cy="30.5" r="2"></circle>
                        <ellipse id="Oval" cx="3.53" cy="4.5" rx="2.03" ry="2"></ellipse>
                        <path d="M9.5,30.5 C9.579,32.629 7.918,34.419 5.79,34.5 L5.5,34.5 C2.72,34.5 0.5,32.16 0.5,28.64 C0.5,17.5 10.5,17.5 10.5,6.36 C10.5,2.84 8.28,0.5 5.5,0.5 C3.371,0.421 1.581,2.082 1.5,4.21 L1.5,4.5" id="Path"></path>
                        <circle id="Oval" cx="14.5" cy="30.5" r="2"></circle>
                        <ellipse id="Oval" cx="18.47" cy="4.5" rx="2.03" ry="2"></ellipse>
                        <path d="M12.5,30.5 C12.421,32.629 14.082,34.419 16.21,34.5 L16.5,34.5 C19.28,34.5 21.5,32.16 21.5,28.64 C21.5,17.5 11.5,17.5 11.5,6.36 C11.5,2.84 13.72,0.5 16.5,0.5 C18.629,0.421 20.419,2.082 20.5,4.21 L20.5,4.5" id="Path"></path>
                        <circle id="Oval" cx="36.5" cy="30.5" r="2"></circle>
                        <ellipse id="Oval" cx="40.47" cy="4.5" rx="2.03" ry="2"></ellipse>
                        <path d="M34.5,30.5 C34.421,32.629 36.082,34.419 38.21,34.5 L38.5,34.5 C41.28,34.5 43.5,32.16 43.5,28.64 C43.5,17.5 33.5,17.5 33.5,6.36 C33.5,2.84 35.72,0.5 38.5,0.5 C40.629,0.421 42.419,2.082 42.5,4.21 L42.5,4.5" id="Path"></path>
                        <circle id="Oval" cx="58.5" cy="30.5" r="2"></circle>
                        <ellipse id="Oval" cx="62.47" cy="4.5" rx="2.03" ry="2"></ellipse>
                        <path d="M56.5,30.5 C56.421,32.629 58.082,34.419 60.21,34.5 L60.5,34.5 C63.28,34.5 65.5,32.16 65.5,28.64 C65.5,17.5 55.5,17.5 55.5,6.36 C55.5,2.84 57.72,0.5 60.5,0.5 C62.629,0.421 64.419,2.082 64.5,4.21 L64.5,4.5" id="Path"></path>
                        <circle id="Oval" cx="80.5" cy="30.5" r="2"></circle>
                        <ellipse id="Oval" cx="84.47" cy="4.5" rx="2.03" ry="2"></ellipse>
                        <path d="M78.5,30.5 C78.421,32.629 80.082,34.419 82.21,34.5 L82.5,34.5 C85.28,34.5 87.5,32.16 87.5,28.64 C87.5,17.5 77.5,17.5 77.5,6.36 C77.5,2.84 79.72,0.5 82.5,0.5 C84.629,0.421 86.419,2.082 86.5,4.21 L86.5,4.5" id="Path"></path>
                        <circle id="Oval" cx="102.5" cy="30.5" r="2"></circle>
                        <ellipse id="Oval" cx="106.47" cy="4.5" rx="2.03" ry="2"></ellipse>
                        <path d="M100.5,30.5 C100.421,32.629 102.082,34.419 104.21,34.5 L104.5,34.5 C107.28,34.5 109.5,32.16 109.5,28.64 C109.5,17.5 99.5,17.5 99.5,6.36 C99.5,2.84 101.72,0.5 104.5,0.5 C106.629,0.421 108.419,2.082 108.5,4.21 L108.5,4.5" id="Path"></path>
                        <circle id="Oval" cx="124.5" cy="30.5" r="2"></circle>
                        <ellipse id="Oval" cx="128.47" cy="4.5" rx="2.03" ry="2"></ellipse>
                        <path d="M122.5,30.5 C122.421,32.629 124.082,34.419 126.21,34.5 L126.5,34.5 C129.28,34.5 131.5,32.16 131.5,28.64 C131.5,17.5 121.5,17.5 121.5,6.36 C121.5,2.84 123.72,0.5 126.5,0.5 C128.629,0.421 130.419,2.082 130.5,4.21 L130.5,4.5" id="Path"></path>
                        <circle id="Oval" cx="146.5" cy="30.5" r="2"></circle>
                        <ellipse id="Oval" cx="150.47" cy="4.5" rx="2.03" ry="2"></ellipse>
                        <path d="M144.5,30.5 C144.421,32.629 146.082,34.419 148.21,34.5 L148.5,34.5 C151.28,34.5 153.5,32.16 153.5,28.64 C153.5,17.5 143.5,17.5 143.5,6.36 C143.5,2.84 145.72,0.5 148.5,0.5 C150.629,0.421 152.419,2.082 152.5,4.21 L152.5,4.5" id="Path"></path>
                        <circle id="Oval" cx="29.5" cy="30.5" r="2"></circle>
                        <ellipse id="Oval" cx="25.53" cy="4.5" rx="2.03" ry="2"></ellipse>
                        <path d="M31.5,30.5 C31.579,32.629 29.918,34.419 27.79,34.5 L27.5,34.5 C24.72,34.5 22.5,32.16 22.5,28.64 C22.5,17.5 32.5,17.5 32.5,6.36 C32.5,2.84 30.28,0.5 27.5,0.5 C25.371,0.421 23.581,2.082 23.5,4.21 L23.5,4.5" id="Path"></path>
                        <circle id="Oval" cx="51.5" cy="30.5" r="2"></circle>
                        <ellipse id="Oval" cx="47.53" cy="4.5" rx="2.03" ry="2"></ellipse>
                        <path d="M53.5,30.5 C53.579,32.629 51.918,34.419 49.79,34.5 L49.5,34.5 C46.72,34.5 44.5,32.16 44.5,28.64 C44.5,17.5 54.5,17.5 54.5,6.36 C54.5,2.84 52.28,0.5 49.5,0.5 C47.371,0.421 45.581,2.082 45.5,4.21 L45.5,4.5" id="Path"></path>
                        <circle id="Oval" cx="73.5" cy="30.5" r="2"></circle>
                        <ellipse id="Oval" cx="69.53" cy="4.5" rx="2.03" ry="2"></ellipse>
                        <path d="M75.5,30.5 C75.579,32.629 73.918,34.419 71.79,34.5 L71.5,34.5 C68.72,34.5 66.5,32.16 66.5,28.64 C66.5,17.5 76.5,17.5 76.5,6.36 C76.5,2.84 74.28,0.5 71.5,0.5 C69.371,0.421 67.581,2.082 67.5,4.21 L67.5,4.5" id="Path"></path>
                        <circle id="Oval" cx="95.5" cy="30.5" r="2"></circle>
                        <ellipse id="Oval" cx="91.53" cy="4.5" rx="2.03" ry="2"></ellipse>
                        <path d="M97.5,30.5 C97.579,32.629 95.918,34.419 93.79,34.5 L93.5,34.5 C90.72,34.5 88.5,32.16 88.5,28.64 C88.5,17.5 98.5,17.5 98.5,6.36 C98.5,2.84 96.28,0.5 93.5,0.5 C91.371,0.421 89.581,2.082 89.5,4.21 L89.5,4.5" id="Path"></path>
                        <circle id="Oval" cx="117.5" cy="30.5" r="2"></circle>
                        <ellipse id="Oval" cx="113.53" cy="4.5" rx="2.03" ry="2"></ellipse>
                        <path d="M119.5,30.5 C119.579,32.629 117.918,34.419 115.79,34.5 L115.5,34.5 C112.72,34.5 110.5,32.16 110.5,28.64 C110.5,17.5 120.5,17.5 120.5,6.36 C120.5,2.84 118.28,0.5 115.5,0.5 C113.371,0.421 111.581,2.082 111.5,4.21 L111.5,4.5" id="Path"></path>
                        <circle id="Oval" cx="139.5" cy="30.5" r="2"></circle>
                        <ellipse id="Oval" cx="135.53" cy="4.5" rx="2.03" ry="2"></ellipse>
                        <path d="M141.5,30.5 C141.579,32.629 139.918,34.419 137.79,34.5 L137.5,34.5 C134.72,34.5 132.5,32.16 132.5,28.64 C132.5,17.5 142.5,17.5 142.5,6.36 C142.5,2.84 140.28,0.5 137.5,0.5 C135.371,0.421 133.581,2.082 133.5,4.21 L133.5,4.5" id="Path"></path>
                        <circle id="Oval" cx="161.5" cy="30.5" r="2"></circle>
                        <ellipse id="Oval" cx="157.53" cy="4.5" rx="2.03" ry="2"></ellipse>
                        <path d="M163.5,30.5 C163.579,32.629 161.918,34.419 159.79,34.5 L159.5,34.5 C156.72,34.5 154.5,32.16 154.5,28.64 C154.5,17.5 164.5,17.5 164.5,6.36 C164.5,2.84 162.28,0.5 159.5,0.5 C157.371,0.421 155.581,2.082 155.5,4.21 L155.5,4.5" id="Path"></path>
                    </g>
                    <g>
                        <path d="M159,93 L159,146" id="Path" stroke="#FFCA28" stroke-width="2"></path>
                        <path d="M148,92 L148,146" id="Path" stroke="#FFCA28" stroke-width="2"></path>
                        <path d="M137,91 L137,146" id="Path" stroke="#FFCA28" stroke-width="2"></path>
                        <path d="M126,89 L126,146" id="Path" stroke="#FFCA28" stroke-width="2"></path>
                        <path d="M115,84.88 L115,146" id="Path" stroke="#FFCA28" stroke-width="2"></path>
                        <path d="M104,80.25 L104,146" id="Path" stroke="#FFCA28" stroke-width="2"></path>
                        <path d="M93,75.13 L93,146" id="Path" stroke="#FFCA28" stroke-width="2"></path>
                        <path d="M82,70.37 L82,146" id="Path" stroke="#FFCA28" stroke-width="2"></path>
                        <path d="M71,66 L71,146" id="Path" stroke="#FFCA28" stroke-width="2"></path>
                        <path d="M60,62 L60,146" id="Path" stroke="#FFCA28" stroke-width="2"></path>
                        <path d="M49,58 L49,146" id="Path" stroke="#FFCA28" stroke-width="2"></path>
                        <path d="M38,55 L38,146" id="Path" stroke="#FFCA28" stroke-width="2"></path>
                        <path d="M27,53 L27,146" id="Path" stroke="#FFCA28" stroke-width="2"></path>
                        <path d="M16,52 L16,146" id="Path" stroke="#FFCA28" stroke-width="2"></path>
                        <path d="M159,172 L159,265" id="Path" stroke="#FFCA28" stroke-width="2"></path>
                        <path d="M148,172 L148,265" id="Path" stroke="#FFCA28" stroke-width="2"></path>
                        <path d="M137,172 L137,265" id="Path" stroke="#FFCA28" stroke-width="2"></path>
                        <path d="M126,172 L126,265" id="Path" stroke="#FFCA28" stroke-width="2"></path>
                        <path d="M115,172 L115,265" id="Path" stroke="#FFCA28" stroke-width="2"></path>
                        <path d="M104,172 L104,265" id="Path" stroke="#FFCA28" stroke-width="2"></path>
                        <path d="M93,173 L93,265" id="Path" stroke="#FFCA28" stroke-width="2"></path>
                        <path d="M82,172 L82,265" id="Path" stroke="#FFCA28" stroke-width="2"></path>
                        <path d="M71,172 L71,265" id="Path" stroke="#FFCA28" stroke-width="2"></path>
                        <path d="M60,172 L60,265" id="Path" stroke="#FFCA28" stroke-width="2"></path>
                        <path d="M49,172 L49,265" id="Path" stroke="#FFCA28" stroke-width="2"></path>
                        <path d="M38,173 L38,265" id="Path" stroke="#FFCA28" stroke-width="2"></path>
                        <path d="M27,172 L27,265" id="Path" stroke="#FFCA28" stroke-width="2"></path>
                        <path d="M16,172 L16,265" id="Path" stroke="#FFCA28" stroke-width="2"></path>
                        <path d="M5,172 L176,172" id="Path" stroke="#FFCA28" stroke-width="2"></path>
                        <path d="M4,146 L177,146" id="Path" stroke="#FFCA28" stroke-width="2"></path>
                        <g transform="translate(4.000000, 64.000000)" id="Path" stroke="#FFCA28">
                            <polyline stroke-width="10" stroke-linecap="round" points="170 0 170 205 1 205"></polyline>
                            <path d="M168,162.5 L0,162.5" stroke-width="5"></path>
                        </g>
                        <path d="M174,93 L169.9,93 C151.96,93 131.61,93 102.4,79.59 L98.24,77.68 C67.05,63.33 42.41,52 4,52" id="Path" stroke="#FFCA28" stroke-width="2"></path>
                        <path d="M173.46,113 L169.9,113 C150.9,113 127.24,113 94.06,97.77 C60.88,82.54 39.55,72 4,72" id="Path" stroke="#FFCA28" stroke-width="2"></path>
                        <path d="M174,105 L169.9,105 C151.68,105 128.99,105 97.4,90.5 L93.22,88.58 C62.2,74.31 39.78,64 4,64" id="Path" stroke="#FFCA28" stroke-width="2"></path>
                        <path d="M4.5,271 L4.5,24" id="Path" stroke="#FFCA28" stroke-width="3"></path>
                        <g fill="#FFCA28">
                            <circle id="Oval" cx="4" cy="21" r="4"></circle>
                            <polygon id="Path" points="0 15 2.67 20.14 5.33 20.14 8 15"></polygon>
                            <path d="M6,13.71 C6,14.815 5.105,15.71 4,15.71 C2.895,15.71 2,14.815 2,13.71 C2,12.45 4,0 4,0 C4,0 6,12.45 6,13.71 Z" id="Path"></path>
                        </g>
                        <polygon id="Path" fill="#FFCA28" points="180 54 176.33 62 171.67 62 168 54"></polygon>
                    </g>
                    <g transform="translate(6.000000, 37.000000)" id="Path">
                        <path d="M62.35,110.18 C55.29,113.73 55.84,123 47,123 C42.72,123 39,120.42 39,116.12 C39,110.81 42.17,109.01 45.59,109.01 C49.01,109.01 51.04,111.24 51.04,114.01 C50.997,116.201 49.231,117.967 47.04,118.01 C45.359,118.032 43.977,116.691 43.95,115.01 L43.95,114.91 C43.938,113.49 45.06,112.319 46.48,112.27" stroke="#FFCA28" stroke-width="2"></path>
                        <path d="M22.38,128.87 C23.85,125.1 24.48,119 31.63,119 C37.07,119 40.45,121.88 41,126.85 C41.43,130.85 38.75,135 34.5,135 C30.88,135 28,132.83 28,129.62 C27.805,127.27 29.552,125.207 31.902,125.011 C31.908,125.01 31.914,125.01 31.92,125.01 C32.106,124.99 32.294,124.99 32.48,125.01 C34.48,125.01 35.98,126.13 35.98,128.13 C35.916,129.74 34.591,131.011 32.98,131.01" stroke="#FFCA28" stroke-width="2"></path>
                        <path d="M60.86,112 C63.012,109.908 65.945,108.819 68.94,109 C74.24,109 81,112.55 81,122 C81,128.85 73.67,135 67,135 C42.26,135 40,109 14,109 C7.33,109 0,115.15 0,122 C0,128.85 4.53,135 12.76,135 C15.614,135.058 18.373,133.979 20.43,132 C23.56,128.547 23.56,123.283 20.43,119.83 C17.928,117.325 13.87,117.323 11.365,119.825 C11.363,119.827 11.362,119.828 11.36,119.83 C9.36,121.83 9.64,124.73 11.65,126.75 C12.446,127.541 13.528,127.977 14.65,127.96 C16.445,128.022 17.954,126.625 18.03,124.83 C18.072,124.043 17.79,123.273 17.25,122.7 C16.223,121.673 14.558,121.672 13.531,122.699 C13.531,122.699 13.531,122.699 13.53,122.7" stroke="#FFCA28" stroke-width="2"></path>
                        <path d="M64,120.94 C62.689,119.683 62.644,117.602 63.9,116.29 L64,116.19 C65.825,114.548 68.595,114.548 70.42,116.19 C72.509,118.405 72.509,121.865 70.42,124.08 C69.16,125.328 67.453,126.02 65.68,126 C63.841,125.977 62.077,125.263 60.74,124 C57.503,120.637 57.552,115.303 60.85,112" stroke="#FFCA28" stroke-width="2"></path>
                        <path d="M100.65,110.18 C107.71,113.73 107.16,123 116,123 C120.28,123 124,120.42 124,116.13 C124,110.81 120.83,109.01 117.41,109.01 C113.99,109.01 111.96,111.24 111.96,114.01 C112.003,116.201 113.769,117.967 115.96,118.01 C117.641,118.032 119.023,116.691 119.05,115.01 L119.05,114.92 C119.067,113.496 117.943,112.319 116.52,112.27" stroke="#FFCA28" stroke-width="2"></path>
                        <path d="M140.63,128.88 C139.15,125.1 138.52,119 131.38,119 C125.93,119 122.55,121.88 122,126.85 C121.57,130.85 124.25,135 128.5,135 C132.13,135 135,132.83 135,129.63 C135.178,127.269 133.419,125.207 131.06,125.01 L130.45,125.01 C128.45,125.01 126.95,126.14 126.95,128.14 C127.049,129.732 128.355,130.982 129.95,131.01" stroke="#FFCA28" stroke-width="2"></path>
                        <path d="M102.14,112 C99.988,109.908 97.055,108.819 94.06,109 C88.76,109 82,112.55 82,122 C82,128.85 89.33,135 96,135 C120.74,135 123,109 149,109 C155.67,109 163,115.15 163,122 C163,128.85 158.47,135 150.24,135 C147.386,135.058 144.627,133.979 142.57,132 C139.44,128.547 139.44,123.283 142.57,119.83 C145.072,117.325 149.13,117.323 151.635,119.825 C151.637,119.827 151.638,119.828 151.64,119.83 C153.64,121.83 153.36,124.73 151.36,126.75 C150.561,127.537 149.481,127.972 148.36,127.96 C146.569,128.022 145.061,126.631 144.98,124.84 C144.94,124.05 145.221,123.278 145.76,122.7 C146.787,121.673 148.452,121.672 149.479,122.699 C149.479,122.699 149.479,122.699 149.48,122.7" stroke="#FFCA28" stroke-width="2"></path>
                        <path d="M99,120.94 C100.311,119.683 100.356,117.602 99.1,116.29 L99,116.19 C97.175,114.548 94.405,114.548 92.58,116.19 C90.491,118.405 90.491,121.865 92.58,124.08 C93.84,125.328 95.547,126.02 97.32,126 C99.159,125.977 100.923,125.263 102.26,124 C105.497,120.637 105.448,115.303 102.15,112" stroke="#FFCA28" stroke-width="2"></path>
                        <path d="M165,14.57 C165.36,16.227 166.995,17.278 168.652,16.918 C169.827,16.663 170.745,15.745 171,14.57 C171,13.23 168,0 168,0 C168,0 165,13.23 165,14.57 Z" fill="#FFCA28"></path>
                    </g>
                    <g transform="translate(4.000000, 10.000000)" id="Path" stroke="#FFCA28" stroke-width="2">
                        <path d="M14.36,6.61 C14.144,8.071 12.833,9.116 11.36,9 C9.43,8.924 7.927,7.3 8,5.37 C7.888,3.07 9.661,1.114 11.962,1.002 C11.975,1.001 11.987,1.001 12,1 C12.183,0.99 12.367,0.99 12.55,1 C16.43,1 18.68,4.5 17.91,8.23 C17.35,10.98 15.47,12.75 12.68,13.75"></path>
                        <path d="M56.38,39.75 C56.745,38.632 57.828,37.91 59,38 C60.75,38 62,39.52 62,41.5 C61.962,43.477 60.328,45.048 58.351,45.01 C58.351,45.01 58.35,45.01 58.35,45.01 L58.13,45.01 C54.75,45.01 53.07,41.73 53.03,39.76 C52.998,38.718 53.232,37.686 53.71,36.76 C55.486,33.335 59.7,31.993 63.13,33.76 C67.41,35.98 68.83,41.53 66.61,45.82 C63.84,51.17 57.85,52.01 52.13,50.12 C43.58,47.31 41.3,39.83 38.33,30.59 C34.55,18.85 25.96,11.59 14.75,13.28 C6.978,14.248 1.11,20.799 1,28.63 C0.99,29.53 1.05,30.429 1.18,31.32 C2.26,38.5 9.51,42.89 16.69,41.81 C22.43,40.95 26.83,36.15 25.97,30.41 C25.367,26.035 21.543,22.83 17.13,23 C13.265,22.928 10.073,26.002 10,29.868 C10,29.869 10,29.87 10,29.87 L10,30 C10,33.75 12.38,36 15.38,36 C17.825,36.102 19.892,34.205 20,31.76 L20,31.5 C20.022,29.578 18.482,28.002 16.56,27.98 C16.56,27.98 16.56,27.98 16.56,27.98 C16.417,27.97 16.273,27.97 16.13,27.98"></path>
                        <path d="M75.5,49.37 C75.836,49.846 76.012,50.417 76,51 C76,52.105 75.105,53 74,53 L73.88,53 C72,53 71,51.37 71,49.63 C70.998,48.998 71.164,48.377 71.48,47.83 C72.178,46.628 73.492,45.921 74.88,46 C75.716,46.031 76.531,46.272 77.25,46.7 C79.879,48.34 80.759,51.754 79.25,54.46 C77.645,57.522 73.866,58.707 70.8,57.11 L70.39,56.87 C66.307,54.613 64.825,49.474 67.08,45.39 L67.08,45.31 C68.855,42.038 72.278,40.001 76,40 C77.895,39.998 79.755,40.502 81.39,41.46 C83.139,42.533 84.645,43.96 85.81,45.65 C92.31,54.65 96.51,68.37 113.13,75.65 C115.85,76.84 121.44,77.52 124.38,76.24 C128.304,74.751 130.278,70.364 128.79,66.44 C128.74,66.289 128.68,66.142 128.61,66 C127.262,62.709 123.504,61.129 120.21,62.47 L120.14,62.47 C117.503,63.622 116.293,66.687 117.43,69.33 C118.361,71.475 120.835,72.484 123,71.6 C124.529,71.091 125.357,69.44 124.85,67.91 C124.82,67.803 124.78,67.699 124.73,67.6 C124.152,66.25 122.59,65.623 121.24,66.2"></path>
                        <path d="M37.75,20.32 C38.745,19.699 40.054,19.998 40.68,20.99 C41.419,22.128 41.096,23.649 39.96,24.39 L39.83,24.47 C38.29,25.443 36.253,24.997 35.26,23.47 C34.05,21.622 34.568,19.142 36.416,17.933 C36.417,17.932 36.419,17.931 36.42,17.93 L36.51,17.88 L36.59,17.88 C39.148,16.384 42.425,17.097 44.13,19.52 C45.54,21.77 45.13,24.1 43.52,26.59 C42.35,28.42 40,30.22 40,33.85 C40.022,36.234 41.181,38.463 43.12,39.85 C44.264,40.625 45.619,41.026 47,41 C49.133,41.008 51.14,39.988 52.39,38.26 C54.094,35.846 53.537,32.509 51.14,30.78 C50.479,30.307 49.692,30.043 48.88,30.02 C46.879,29.901 45.16,31.426 45.04,33.427 C45.04,33.428 45.04,33.429 45.04,33.43 L45.04,33.61 C45.009,34.746 45.54,35.823 46.46,36.49 C47.687,37.35 49.376,37.07 50.26,35.86"></path>
                        <path d="M161.91,78.69 C162.247,77.023 161.169,75.398 159.502,75.06 C159.501,75.06 159.501,75.06 159.5,75.06 C159.253,75.01 159.001,74.99 158.75,75 C156.817,74.857 155.134,76.307 154.99,78.24 C154.97,78.453 154.97,78.667 154.99,78.88 C155.006,80.741 156.303,82.345 158.12,82.75 C161.28,83.51 164.49,82 165.27,78.92 C166.212,75.074 163.857,71.192 160.011,70.25 C160.011,70.25 160.01,70.25 160.01,70.25 L159.87,70.25 C156.17,69.36 153.62,70.94 151.28,73.59 C149.28,75.9 148.05,78.59 143.87,80.38 C139.69,82.17 136.26,81.82 133.25,79.66 C129.241,76.933 128.201,71.472 130.929,67.462 C130.929,67.461 130.93,67.461 130.93,67.46 C131.03,67.31 131.14,67.16 131.25,67.02 C133.686,63.747 138.311,63.062 141.59,65.49 C143.131,66.65 144.021,68.481 143.98,70.41 C143.991,71.716 143.6,72.994 142.86,74.07 C141.941,75.296 140.511,76.033 138.98,76.07 C136.947,76.237 135.16,74.732 134.98,72.7 L134.98,72.45 C134.98,71.65 135.36,69.07 137.98,69.07 C139.114,68.998 140.17,69.652 140.61,70.7"></path>
                        <path d="M92.25,56 C91.33,54.42 89.73,52.22 87.9,51.5 C84.476,50.019 80.498,51.583 79,55 C77.922,57.775 79.283,60.9 82.05,62 C84.303,62.879 86.846,61.807 87.79,59.58 C88.471,57.801 87.581,55.806 85.802,55.124 C85.798,55.123 85.794,55.121 85.79,55.12 C84.382,54.557 82.783,55.236 82.21,56.64"></path>
                        <path d="M101.63,68.13 C98.24,64.3 97.9,58.03 101.86,54.75 C105.097,52.163 109.791,52.558 112.55,55.65 C114.648,58.003 114.442,61.611 112.09,63.71 L111.89,63.88 C109.766,65.538 106.729,65.299 104.89,63.33 C104.309,62.597 103.998,61.686 104.01,60.75 C103.878,58.817 105.337,57.143 107.27,57.01 L107.51,57.01 C108.41,57.009 109.268,57.391 109.87,58.06 C110.269,58.507 110.48,59.091 110.46,59.69"></path>
                    </g>
                    <g transform="translate(6.000000, 53.000000)" id="Oval" stroke="#FFCA28">
                        <circle cx="158.5" cy="46" r="4.5"></circle>
                        <circle cx="147.63" cy="45.68" r="4.5"></circle>
                        <circle cx="136.5" cy="44.67" r="4.5"></circle>
                        <circle cx="125.5" cy="42.78" r="4.5"></circle>
                        <circle cx="114.5" cy="40" r="4.5"></circle>
                        <circle cx="103.38" cy="36.07" r="4.5"></circle>
                        <circle cx="92.5" cy="31.41" r="4.5"></circle>
                        <circle cx="81.5" cy="26.34" r="4.5"></circle>
                        <circle cx="70.5" cy="21.45" r="4.5"></circle>
                        <circle cx="59.5" cy="16.91" r="4.5"></circle>
                        <circle cx="48.5" cy="12.96" r="4.5"></circle>
                        <circle cx="37.5" cy="9.75" r="4.5"></circle>
                        <circle cx="26.5" cy="7.39" r="4.5"></circle>
                        <circle cx="15" cy="5.81" r="4.5"></circle>
                        <circle cx="4.5" cy="5.12" r="4.5"></circle>
                    </g>
                </g>
                <g id="Group" transform="translate(417.000000, 179.000000)">
                    <path d="M51.5,42 L4.5,42 C2.017,41.995 0.005,39.983 0,37.5 L0,11.5 C0.005,9.017 2.017,7.005 4.5,7 L11.7,7 C13.7,3.39 19.85,0 28,0 C36.15,0 42.33,3.39 44.31,7 L51.5,7 C53.983,7.005 55.995,9.017 56,11.5 L56,37.5 C55.995,39.983 53.983,41.995 51.5,42 Z" id="Path" fill="#00796B"></path>
                    <g transform="translate(2.000000, 2.000000)">
                        <path d="M18.48,4.2 C18.617,3.499 18.176,2.814 17.48,2.65 C16.569,2.506 15.714,3.128 15.57,4.039 C15.57,4.039 15.57,4.039 15.57,4.04 C15.368,5.162 16.102,6.238 17.22,6.46 C18.372,6.68 19.518,6.056 19.96,4.97 C20.34,4.17 20.48,2.32 21.79,1.51 C23.037,0.692 24.711,1.04 25.528,2.287 C25.556,2.33 25.584,2.375 25.61,2.42 C26.181,3.371 26.181,4.559 25.61,5.51 C24.989,6.509 23.675,6.815 22.676,6.194 C22.674,6.193 22.672,6.191 22.67,6.19 C21.887,5.682 21.637,4.651 22.1,3.84 C22.486,3.196 23.321,2.986 23.966,3.372 C23.981,3.381 23.996,3.39 24.01,3.4" id="Path" stroke="#F1E8C9"></path>
                        <path d="M33.52,4.2 C33.383,3.499 33.824,2.814 34.52,2.65 C35.431,2.506 36.286,3.128 36.43,4.039 C36.43,4.039 36.43,4.039 36.43,4.04 C36.632,5.158 35.904,6.233 34.79,6.46 C33.638,6.68 32.492,6.056 32.05,4.97 C31.67,4.17 31.54,2.32 30.24,1.51 C29.332,0.903 28.148,0.903 27.24,1.51 C25.992,2.441 25.632,4.155 26.4,5.51 C27.014,6.507 28.319,6.818 29.317,6.205 C29.325,6.2 29.333,6.195 29.34,6.19 C30.115,5.676 30.36,4.649 29.9,3.84 C29.514,3.196 28.679,2.986 28.034,3.372 C28.019,3.381 28.004,3.39 27.99,3.4" id="Path" stroke="#F1E8C9"></path>
                        <polygon id="Path" fill="#F1E8C9" points="26 5 24.59 6.42 26 9 27.45 6.43"></polygon>
                        <polygon id="Path" fill="#F1E8C9" points="26.02 0.5 24.59 1 26.02 2.5 27.45 1"></polygon>
                        <path d="M40.5,7.5 C40.5,4.88 35,0.5 26,0.5 C17,0.5 11.5,5 11.5,7.5 L2.5,7.5 C1.395,7.5 0.5,8.395 0.5,9.5 L0.5,35.5 C0.5,36.605 1.395,37.5 2.5,37.5 L49.5,37.5 C50.605,37.5 51.5,36.605 51.5,35.5 L51.5,9.5 C51.5,8.395 50.605,7.5 49.5,7.5 L40.5,7.5 Z" id="Path" stroke="#F1E8C9"></path>
                        <text id="SOON" font-family="CamphorPro-Medium, Camphor Pro" font-size="14" font-weight="400" letter-spacing="-0.0979999974" fill="#F1E8C9">
                            <tspan x="7" y="27">SOON</tspan>
                        </text>
                    </g>
                </g>
                <path d="M393.46,373.36 C392.926,373.362 392.393,373.419 391.87,373.53 C390.87,366.68 383.7,361.36 375,361.36 C370.086,361.265 365.334,363.116 361.78,366.51 C357.57,359.74 347.84,355 336.5,355 C332.167,354.98 327.863,355.71 323.78,357.16 C319.708,353.157 314.21,350.941 308.5,351 C304.714,350.989 300.989,351.95 297.68,353.79 C293.25,344.51 283,338 271,338 C262.729,337.921 254.784,341.218 249,347.13 C244.14,336 231.43,328 216.5,328 C203.34,328 191.9,334.2 186.08,343.31 C183.132,342.441 180.074,342 177,342 C164.76,342 154.3,348.8 150,358.42 C146.71,354.56 141,352 134.46,352 C125.78,352 118.52,356.53 116.52,362.63 C113.538,360.241 109.821,358.959 106,359 C98.77,359 92.74,363.26 91.32,368.93 C88.78,366.55 84.66,365 80,365 C72.73,365 66.76,368.76 66.07,373.56 C65.089,373.19 64.049,373 63,373 C59.13,373 56,375.46 56,378.5 C56,381.54 59.13,384 63,384 L393.46,384 C397.07,384 400,381.62 400,378.68 C400,375.74 397.07,373.36 393.46,373.36 Z" id="Path" fill="url(#linearGradient-3)"></path>
                <g id="Group" transform="translate(251.000000, 357.000000)">
                    <polygon id="Path" fill="#E0E0E0" points="271 106 271 88 250 73 250 57 230 44 230 30 210 19 210 7 197 0 101 0 88 7 88 19 68 30 68 44 48 57 48 73 27 88 27 106 0 125 298 125"></polygon>
                    <rect id="Rectangle" fill="#BDBDBD" x="88" y="7" width="122" height="12"></rect>
                    <rect id="Rectangle" fill="#BDBDBD" x="68" y="30" width="162" height="14"></rect>
                    <rect id="Rectangle" fill="#BDBDBD" x="48" y="57" width="202" height="16"></rect>
                    <rect id="Rectangle" fill="#BDBDBD" x="27" y="88" width="244" height="18"></rect>
                </g>
                <path d="M367,483.34 C366.983,486.442 369.478,488.973 372.58,489 L665.41,489 C668.514,488.983 671.017,486.454 671,483.35 C671,483.35 671,483.35 671,483.35 C670.989,480.39 668.58,477.999 665.62,478.01 L665.41,478.01 C663.909,477.898 662.431,478.433 661.35,479.48 C660.016,472.493 653.271,467.91 646.283,469.244 C642.832,469.903 639.8,471.942 637.89,474.89 C635.499,471.287 631.493,469.086 627.17,469 C625.331,469.07 623.528,469.531 621.88,470.35 C617.649,461.354 606.927,457.491 597.931,461.721 C596.631,462.333 595.408,463.098 594.29,464 C587.592,456.76 576.431,455.942 568.75,462.13 C563.524,445.473 545.784,436.206 529.127,441.432 C520.235,444.222 513.028,450.793 509.43,459.39 C500.466,449.159 484.905,448.132 474.674,457.096 C472.137,459.319 470.083,462.04 468.64,465.09 C462.72,452.72 447.893,447.492 435.524,453.412 C430.117,456 425.828,460.457 423.45,465.96 C421.3,464.96 418.93,464.96 416.45,464.96 C409.02,464.96 402.67,469.06 400.03,475.62 C397.342,473.278 393.895,471.991 390.33,472 C384.791,472.007 379.713,475.089 377.15,480 C376.074,478.601 374.371,477.832 372.61,477.95 C369.651,477.82 367.145,480.111 367.01,483.07 C367.002,483.16 366.998,483.25 367,483.34 Z" id="Path" fill="url(#linearGradient-4)"></path>
                <path d="M375,485 C374.262,485.001 373.534,485.168 372.87,485.49 C372.025,480.032 366.916,476.292 361.458,477.137 C359.932,477.373 358.481,477.96 357.22,478.85 C354.667,471.279 346.462,467.21 338.89,469.76 C337.769,470.139 336.698,470.653 335.7,471.29 C331.997,462.064 321.517,457.587 312.291,461.29 C312.291,461.29 312.291,461.29 312.29,461.29 C310.951,461.839 309.679,462.541 308.5,463.38 C300.166,450.683 283.117,447.146 270.42,455.48 C266.418,458.107 263.171,461.733 261,466 C254.127,456.338 240.722,454.076 231.06,460.949 C227.514,463.471 224.819,467.011 223.33,471.1 C215.959,461.805 202.448,460.246 193.153,467.617 C190.828,469.461 188.91,471.767 187.52,474.39 C180.859,469.968 171.875,471.781 167.45,478.44 C166.852,479.331 166.359,480.287 165.98,481.29 C160.915,476.608 153.013,476.918 148.33,481.983 C147.117,483.295 146.2,484.853 145.64,486.55 C143.735,484.551 140.57,484.476 138.571,486.381 C136.572,488.286 136.497,491.451 138.402,493.45 C139.341,494.435 140.64,494.994 142,495 L375,495 C377.761,495 380,492.761 380,490 C380,487.239 377.761,485 375,485 Z" id="Path" fill="url(#linearGradient-5)"></path>
                <path d="M411.5,363 C412.722,363.007 413.93,362.733 415.03,362.2 C417.25,365.59 422.88,368 429.5,368 C435.55,368 440.77,366 443.32,363.05 C446.55,366 452.81,368 460,368 L622,368 C627.92,368 633.12,366.67 636.17,364.64 C638.5,366.64 642.48,368 647,368 C653.07,368 658.15,365.6 659.58,362.35 C660.317,362.773 661.151,362.997 662,363 C664.761,363 667,360.761 667,358 C667,355.239 664.761,353 662,353 L661.77,353 C660.63,347.87 655.13,344 648.5,344 C644.83,343.948 641.27,345.251 638.5,347.66 C636.12,343.66 631.22,341 625.5,341 C621.034,340.893 616.738,342.715 613.71,346 C612.33,340.27 606.27,336 599,336 C595.983,335.98 593.014,336.764 590.4,338.27 C587.14,331.66 579.24,327 570,327 C563.846,326.899 557.884,329.141 553.32,333.27 C549.55,324.94 539.86,319 528.5,319 C518.5,319 509.72,323.64 505.23,330.47 C502.597,329.489 499.809,328.991 497,329 C487.7,329 479.9,334.25 477.66,341.35 C474.659,338.486 470.648,336.923 466.5,337 C460.2,337 454.85,340.33 452.85,345 C450.516,343.032 447.553,341.967 444.5,342 C438.84,342 434.14,345.38 433.19,349.84 C430.882,347.954 427.98,346.947 425,347 C419.82,347 415.48,349.77 414.32,353.5 C413.417,353.169 412.462,353 411.5,353 C407.91,353 405,355.24 405,358 C405,360.76 407.91,363 411.5,363 Z" id="Path" fill="url(#linearGradient-3)"></path>
                <path d="M328,522 C328.338,521.99 328.674,521.94 329,521.85 L329,522 L545,522 C547.209,522.01 549.008,520.227 549.017,518.017 C549.026,515.807 547.244,514.009 545.034,514 C543.764,513.995 542.568,514.592 541.809,515.61 C540.779,510.471 535.779,507.14 530.64,508.169 C528.293,508.639 526.21,509.979 524.809,511.92 C522.395,507.541 516.994,505.79 512.469,507.92 C509.094,501.583 501.221,499.182 494.884,502.558 C494.882,502.559 494.881,502.56 494.879,502.56 C494.265,502.893 493.677,503.271 493.119,503.69 C488.055,498.143 479.583,497.408 473.639,502 C469.245,489.495 455.545,482.92 443.04,487.314 C436.88,489.479 431.868,494.059 429.159,500 C422.295,492.461 410.62,491.914 403.081,498.778 C401.4,500.309 400.016,502.137 398.999,504.17 C394.41,495.054 383.3,491.383 374.183,495.972 C370.201,497.977 367.077,501.353 365.389,505.48 C359.319,502.228 351.762,504.511 348.509,510.58 C348.369,510.83 348.249,511.08 348.129,511.34 C342.792,507.41 335.28,508.551 331.351,513.888 C331.35,513.889 331.35,513.89 331.349,513.89 C331.088,514.243 330.848,514.61 330.629,514.99 C329.908,514.347 328.975,513.991 328.009,513.99 C325.8,513.99 324.009,515.781 324.009,517.99 C324.009,520.199 325.8,521.99 328.009,521.99 L328,522 Z" id="Path" fill="url(#linearGradient-6)"></path>
                <path d="M71,425 L71.23,425 C72.37,419.87 77.87,416 84.5,416 C88.17,415.948 91.73,417.251 94.5,419.66 C96.88,415.66 101.78,413 107.5,413 C111.966,412.893 116.262,414.715 119.29,418 C120.67,412.27 126.73,408 134,408 C137.017,407.98 139.986,408.764 142.6,410.27 C145.86,403.66 153.76,399 163,399 C169.154,398.899 175.116,401.141 179.68,405.27 C183.45,396.94 193.14,391 204.5,391 C214.5,391 223.28,395.64 227.77,402.47 C230.403,401.489 233.191,400.991 236,401 C245.3,401 253.1,406.25 255.34,413.35 C258.341,410.486 262.352,408.923 266.5,409 C272.8,409 278.15,412.33 280.15,417 C282.484,415.032 285.447,413.967 288.5,414 C294.16,414 298.86,417.38 299.81,421.84 C302.118,419.954 305.02,418.947 308,419 C313.18,419 317.52,421.77 318.68,425.5 C319.583,425.169 320.538,425 321.5,425 C325.09,425 328,427.24 328,430 C328,432.76 325.09,435 321.5,435 C320.278,435.007 319.07,434.733 317.97,434.2 C315.75,437.59 310.12,440 303.5,440 C297.45,440 292.23,438 289.68,435.05 C286.45,438 280.19,440 273,440 L111,440 C105.08,440 99.88,438.67 96.83,436.64 C94.5,438.67 90.52,440 86,440 C79.93,440 74.85,437.6 73.42,434.35 C72.683,434.773 71.849,434.997 71,435 C68.239,435 66,432.761 66,430 C66,427.239 68.239,425 71,425 Z" id="Path" fill="url(#linearGradient-3)"></path>
            </g>
        </g>
    </g>
</svg>